<?xml version="1.0" encoding="UTF-8"?>
<svg viewBox="0 0 12 17" xmlns="http://www.w3.org/2000/svg">
<path d="m2.7306 8.3137c3e-5 -1.0786-0.43908-2.1151-1.225-2.8917-0.16128-0.15913-0.38233-0.25073-0.61453-0.25463-0.23219-0.00391-0.45651 0.08019-0.62359 0.23379-0.16709 0.15361-0.26326 0.36414-0.26736 0.58527-0.0041024 0.22114 0.084201 0.43477 0.24549 0.5939 0.45501 0.47325 0.70738 1.0916 0.70738 1.7333s-0.25237 1.2601-0.70738 1.7333c-0.16129 0.1592-0.24959 0.3728-0.24549 0.5939 0.0041023 0.2212 0.10027 0.4317 0.26736 0.5853 0.16709 0.1536 0.3914 0.2377 0.62359 0.2338 0.23219-0.0039 0.45325-0.0955 0.61453-0.2546 0.78592-0.7766 1.225-1.8131 1.225-2.8917zm4.375 0c-6.9e-4 -1.0065-0.21409-2.0026-0.62749-2.9288-0.4134-0.9263-1.0183-1.7639-1.7788-2.4628-0.08445-0.07606-0.18381-0.13553-0.2924-0.17502-0.10859-0.03948-0.22428-0.05821-0.34047-0.05512-0.11619 0.0031-0.2306 0.02796-0.3367 0.07316-0.1061 0.04521-0.20182 0.10988-0.28168 0.19031-0.16128 0.16245-0.2482 0.37926-0.24164 0.60274 0.00325 0.11065 0.02935 0.21962 0.07682 0.32067 0.04747 0.10104 0.11537 0.1922 0.19982 0.26826 0.59279 0.54415 1.0643 1.1965 1.3864 1.9182 0.32205 0.72163 0.48804 1.4977 0.48804 2.2818 0 0.78411-0.16599 1.5602-0.48804 2.2818-0.32206 0.7216-0.79358 1.374-1.3864 1.9181-0.08267 0.0772-0.14845 0.1693-0.19351 0.2708-0.04506 0.1016-0.06851 0.2107-0.06899 0.3209 6.5e-4 0.1629 0.05139 0.322 0.14595 0.4577 0.09455 0.1356 0.22878 0.242 0.38609 0.3058 0.15732 0.0638 0.33082 0.0824 0.49907 0.0533 0.16825-0.029 0.32388-0.1044 0.44764-0.2168 0.76468-0.7028 1.3721-1.5458 1.7856-2.4781 0.41353-0.9324 0.62465-1.9348 0.62063-2.9469z" fill="#fff"/>
<path d="m8.0419 16.414c2.2027-2.1746 3.4337-5.0784 3.4337-8.1 0-3.0216-1.231-5.9254-3.4337-8.1-0.16419-0.14063-0.37815-0.21694-0.59896-0.21361-0.2208 0.0033316-0.43212 0.086054-0.59155 0.23157-0.15944 0.14552-0.25521 0.34307-0.2681 0.55303-0.01288 0.20996 0.05806 0.41679 0.19861 0.57901 1.8925 1.8647 2.9504 4.3566 2.9504 6.95 0 2.5934-1.0579 5.0853-2.9504 6.95-0.15634 0.1545-0.2441 0.3605-0.245 0.575 4.5e-4 0.1123 0.02471 0.2233 0.07132 0.3264 0.04662 0.1031 0.11462 0.1962 0.19993 0.2736 0.16739 0.1519 0.39112 0.2346 0.62229 0.2299 0.23118-0.0047 0.45102-0.0963 0.61146-0.2549z" fill="#fff"/>
</svg>
